<?xml version="1.0" encoding="UTF-8" standalone="no"?>
<svg
   version="1.1"
   id="Layer_1"
   x="0px"
   y="0px"
   width="700"
   viewBox="0 0 700 700"
   enable-background="new 0 0 1408 736"
   xml:space="preserve"
   sodipodi:docname="GoriGraph.svg"
   height="700"
   inkscape:version="1.4.3 (0d15f75042, 2025-12-25)"
   xmlns:inkscape="http://www.inkscape.org/namespaces/inkscape"
   xmlns:sodipodi="http://sodipodi.sourceforge.net/DTD/sodipodi-0.dtd"
   xmlns="http://www.w3.org/2000/svg"
   xmlns:svg="http://www.w3.org/2000/svg"><defs
   id="defs116" /><sodipodi:namedview
   id="namedview116"
   pagecolor="#ffffff"
   bordercolor="#000000"
   borderopacity="0.25"
   inkscape:showpageshadow="2"
   inkscape:pageopacity="0.0"
   inkscape:pagecheckerboard="0"
   inkscape:deskcolor="#d1d1d1"
   inkscape:zoom="0.27698864"
   inkscape:cx="702.19487"
   inkscape:cy="366.44103"
   inkscape:window-width="1898"
   inkscape:window-height="1022"
   inkscape:window-x="0"
   inkscape:window-y="0"
   inkscape:window-maximized="1"
   inkscape:current-layer="Layer_1"><inkscape:page
     x="0"
     y="0"
     width="700"
     height="700"
     id="page2"
     margin="0"
     bleed="0" /></sodipodi:namedview>

<path
   fill="#edf5f7"
   opacity="1"
   stroke="none"
   d="m 514.19487,0.94835195 c 62.47522,0 124.45038,0 186.7128,0 0,233.29412805 0,466.35986805 0,699.71319805 -233.00675,0 -466.07248,0 -699.4258682,0 0,-233.00699 0,-466.07271 0,-699.71319805 170.6984782,0 341.4558082,0 512.7130682,0 M 176.99553,426.75747 c 0,0 -0.0378,-0.13175 -0.55805,0.067 -0.17724,0.31644 -0.35449,0.63288 -0.42535,0.93601 0,0 -0.069,-0.0821 -0.64508,0.15747 -0.79681,0.94305 -1.59363,1.88608 -2.31799,2.8956 0,0 0.02,-0.0963 -0.52094,0.099 -0.19836,0.31967 -0.39667,0.63934 -1.0072,1.11468 -0.26227,0.19129 -0.3794,0.44861 -0.84412,1.00552 -0.19696,0.30039 -0.39392,0.6008 -0.50122,0.89945 0,0 -0.008,-0.0894 -0.53979,0.0622 -0.1612,0.3158 -0.32245,0.63163 -0.43341,0.94666 0,0 -0.0278,-0.0419 -0.58521,0.33756 -5.0318,4.38708 -8.17578,9.18621 -7.74835,16.60562 0.70557,12.24829 0.14917,24.56878 0.15369,36.85885 3.6e-4,1.02182 0.22137,2.04358 0.51227,4.55255 4.20379,-5.48254 7.56951,-9.87213 11.51135,-14.48715 1.06366,-1.24081 2.12738,-2.48163 3.80426,-4.01184 0.87848,-1.21948 1.75696,-2.43899 2.50635,-3.68976 0,0 0.0262,0.13022 0.67968,0.0765 0.73694,-0.7348 1.47388,-1.46963 2.15778,-2.23202 0,0 0.0317,0.0506 0.63141,-0.24521 5.53375,-6.2356 11.06756,-12.47116 17.03186,-18.81287 0.27246,-0.18252 0.3977,-0.43741 0.98303,-1.07242 2.24646,-2.59732 4.49286,-5.19461 7.32208,-8.04584 0.77716,-1.22857 1.55426,-2.45712 2.93109,-3.95297 4.40894,-4.92984 8.81787,-9.85968 13.15241,-14.82113 0,0 -0.009,0.0803 0.50873,-0.10212 0.18512,-0.30578 0.37024,-0.61157 0.47638,-0.91336 0,0 0.035,0.071 0.63855,-0.20715 0.85046,-1.17908 1.70092,-2.35812 3.24139,-3.62064 7.83563,-9.0317 15.6712,-18.06344 24.11829,-27.31655 11.17096,-12.23472 22.34185,-24.46943 33.90496,-37.19211 2.35932,-1.9249 4.71863,-3.8498 7.34784,-5.48538 0.20447,0.178 0.44025,0.28967 1.03681,0.83343 0.1723,0.0999 0.34454,0.19974 0.72033,0.78604 0.53577,0.43903 1.07154,0.87805 1.80384,1.75714 0.18524,0.28833 0.44702,0.45969 1.08758,1.13324 6.65448,6.84488 13.30896,13.68976 20.0705,20.9462 0.16235,0.26559 0.39911,0.40286 0.99591,1.03516 5.336,5.41622 10.672,10.83248 16.22711,16.79837 0.59638,0.49774 1.19275,0.99551 2.05457,2.1058 6.73986,7.04865 13.47979,14.09729 20.84387,21.79877 4.30194,-5.47852 8.16162,-10.39389 11.92761,-15.33567 0,0 0.0421,0.0878 0.70252,-0.078 5.07714,-5.66717 10.15429,-11.33432 15.83538,-17.28891 10.32904,-11.50445 20.65809,-23.00894 31.54883,-34.76416 6.97046,-7.96612 13.94092,-15.93222 20.87476,-23.92181 0,0 0.0109,0.039 0.47748,-0.1102 0,0 0.40271,-0.27881 0.96203,-0.55841 7.61871,-8.74878 15.23743,-17.49756 23.38745,-26.49753 0.73749,-0.89896 1.47498,-1.79791 2.79303,-2.98618 1.14173,-1.27459 2.28345,-2.54919 3.37104,-3.86694 0,0 0.0201,0.0663 0.50592,-0.11978 0.18463,-0.28455 0.36932,-0.56909 0.49206,-0.87631 0,0 0.0211,0.0625 0.60236,-0.15418 0.21716,-0.33462 0.43432,-0.66925 1.23474,-1.24206 6.55493,-7.70401 13.10992,-15.40802 19.13238,-23.3216 0.17395,0.0787 0.3479,0.15738 1.1626,0.4372 1.97064,-1.46576 3.64942,-1.66382 5.4848,0.48416 1.71552,2.00754 3.8794,3.63132 5.84192,5.4285 6.31916,5.78692 12.63642,11.57589 19.96704,18.29181 1.02735,-7.29941 1.87586,-13.32871 3.20557,-19.72202 0.0712,-0.38461 0.14252,-0.76919 0.45764,-1.94235 1.00574,-6.07035 2.01154,-12.14072 3.46448,-18.83148 3.77118,-20.99183 7.54236,-41.98365 11.45007,-63.73554 -9.97809,3.04877 -18.8587,5.77852 -27.74927,8.47516 -16.07348,4.87527 -32.15295,9.73076 -49.02636,14.62985 -7.48773,2.17151 -14.97547,4.34304 -23.72595,6.88075 9.92431,8.89136 18.76239,16.80956 28.156,25.22545 -10.65704,12.18271 -21.12512,24.14942 -32.18872,36.42569 -7.93408,8.92008 -15.86816,17.84015 -24.41907,27.12152 -12.73584,14.14563 -25.47168,28.29123 -38.78082,42.76862 -6.20673,6.77948 -12.41345,13.55893 -18.59076,20.30634 -2.56543,-2.17911 -4.57019,-3.88199 -6.74841,-6.24659 -0.80451,-1.05005 -1.51581,-2.18979 -2.42755,-3.1365 -11.67029,-12.11826 -23.19312,-24.38623 -35.1283,-36.23871 -6.94128,-6.89319 -14.55554,-13.10876 -22.06537,-19.80618 -8.75073,9.76452 -18.62292,20.78052 -29.09601,32.07824 -7.10467,7.92267 -14.20935,15.84534 -21.94653,24.00211 -5.78155,6.52734 -11.56305,13.05469 -17.8656,19.81677 -0.18079,0.32202 -0.36163,0.64405 -0.97003,1.1832 -0.2558,0.22122 -0.39813,0.50034 -1.02283,1.13119 -5.88385,6.53696 -11.76764,13.07392 -18.07074,19.76554 -0.25714,0.19522 -0.38568,0.45425 -0.9209,1.05182 -0.30236,0.49994 -0.60479,0.99987 -0.77679,1.60397 0,0 -0.0558,-0.15726 -0.56214,0.014 -0.16687,0.30441 -0.33374,0.60882 -0.47192,0.83526 0,0 -0.0831,4.9e-4 -0.65533,0.28443 -2.37006,2.67462 -4.74005,5.34924 -7.00599,8.09411 0,0 -0.0621,-0.10919 -0.67334,0.16617 -3.79125,4.26853 -7.58258,8.53702 -11.29077,12.85571 0,0 -0.0511,-0.0825 -0.57183,0.17569 -0.29926,0.48648 -0.59845,0.97297 -0.72394,1.65512 0,0 -0.11469,-0.23513 -0.59571,-0.0177 -0.15991,0.30555 -0.31976,0.61112 -0.35327,0.96396 0,0 -0.0419,-0.12817 -0.54797,0.0807 -0.17529,0.31101 -0.35059,0.62201 -0.3927,0.96552 M 303.44756,289.38396 c 0.17053,0.28018 0.41699,0.45035 0.73297,0.56662 0,0 0.0563,-0.002 0.27917,0.62546 2.88342,3.15741 5.76679,6.31482 8.71625,9.4144 0,0 -0.0878,3.6e-4 0.0265,0.55389 0.30676,0.18979 0.61359,0.37961 0.9176,0.46082 0,0 -0.10559,0.0256 0.0292,0.61355 0.70129,0.6897 1.40264,1.3794 2.07409,2.26331 0,0 0.19519,0.022 0.34534,0.55444 0.53735,0.4849 1.07465,0.96982 1.60699,1.52848 0,0 0.0731,0.0114 0.18793,0.49041 0.16956,0.31937 0.43457,0.49332 0.83185,0.50891 0,0 -0.0256,0.0311 0.19659,0.6604 11.75244,13.21674 23.50489,26.43348 35.69501,40.14243 3.33276,-4.05661 6.14197,-7.47595 9.54797,-11.20465 3.17707,-3.56726 6.35419,-7.13455 10.11945,-10.99988 6.54529,-7.52246 13.09058,-15.04495 20.22382,-22.85645 6.7987,-7.50543 13.50628,-15.0968 20.45355,-22.46212 1.99432,-2.11441 2.0614,-3.64997 0.59521,-6.02847 -6.15503,-9.98472 -10.09277,-20.84778 -12.77954,-32.25748 -1.1662,-4.95224 -3.27362,-9.68282 -4.83886,-15.03078 -0.12342,-0.32591 -0.24677,-0.65182 -0.37629,-1.72327 -2.56799,-5.46604 -5.13592,-10.93209 -7.68158,-16.29345 0,0 0.0372,-0.10039 -0.0742,-0.73273 -0.66511,-0.82694 -1.33027,-1.65387 -2.23578,-3.09219 -13.90241,-17.10566 -40.5625,-20.5546 -58.60804,-7.33348 -1.11352,0.94398 -2.22699,1.88797 -4.00488,3.03138 -0.82281,0.99845 -1.64569,1.99689 -2.38586,3.08638 0,0 0.0751,-0.0972 -0.48719,0.0332 -0.17566,0.32486 -0.35131,0.64972 -0.4505,0.92754 0,0 -0.0668,-0.06 -0.69049,0.20872 -3.08215,5.9552 -6.1643,11.9104 -9.70447,18.42328 -0.85198,2.67709 -1.68206,5.36139 -2.55987,8.03 -3.71564,11.29588 -7.32544,22.62889 -11.23309,33.85814 -1.42548,4.0964 -5.50336,8.29599 -4.86023,11.80493 0.67828,3.70035 5.54889,6.63229 8.64105,10.20489 0.11566,0.19751 0.2879,0.2959 0.51654,0.5217 0,0 0.22143,0.0478 0.31769,0.457 0.14996,0.2623 0.37427,0.41678 0.66174,0.59284 0,0 0.12952,0.009 0.2544,0.45187 m 241.7268,210.84686 c -0.3518,0.22876 -0.70355,0.45752 -1.07995,1.21894 0.13147,0.32562 0.26287,0.65124 0.45788,1.78692 0.6659,2.85047 1.33185,5.70087 2.19898,9.41272 -2.83698,0 -4.9292,-1.8e-4 -7.02143,6e-5 -39.07812,0.005 -78.15631,10e-4 -117.23443,0.0377 -2.12775,0.002 -4.25519,0.34034 -6.93537,-0.0751 -4.78167,0.19287 -9.56341,0.38568 -15.03131,0.19 -0.77997,0.0372 -1.55987,0.0743 -2.99219,-0.0847 -0.44488,0.0633 -0.88977,0.12652 -2.25866,0.007 -27.40937,-0.0132 -54.81879,-0.0563 -82.22809,-0.0256 -11.95227,0.0134 -23.90436,0.17816 -36.74219,0.0953 -2.70386,0.0578 -5.40777,0.11566 -8.99225,-0.0365 -2.70599,0.0626 -5.41205,0.12513 -9.04095,0.006 -39.54547,0 -79.09101,0 -118.81507,0 -0.11438,-1.65497 -0.23873,-2.61542 -0.23873,-3.57587 -4.6e-4,-35.6011 0.0294,-71.20221 0.009,-106.80331 -0.006,-11.14032 -0.14469,-22.28058 -0.0264,-34.34299 0.0161,-34.90747 0.0623,-69.81494 0.0364,-104.72238 -0.014,-18.77887 -0.15149,-37.55768 -0.028,-57.25831 0,-9.92473 0,-19.84945 0,-30.25524 4.39984,1.1653 8.12024,2.15065 12.82596,3.39697 -5.75165,-10.70393 -10.94486,-20.36857 -16.4863,-30.6813 -5.41015,10.50297 -10.35037,20.09358 -15.64596,30.37414 4.64221,-1.13417 8.2265,-2.00987 12.26239,-2.99589 0,2.55185 -0.007,4.36502 9.7e-4,6.17814 0.0969,22.64669 0.19596,45.29335 0.15201,68.85666 -0.0534,78.02158 -0.11627,156.04316 -0.14676,234.06473 -0.003,8.64417 0.17826,17.28839 -0.1232,26.64588 -2.07595,0.31768 -4.14816,0.87701 -6.22851,0.90942 -7.25428,0.11304 -14.51139,0.0437 -21.78394,0.0437 0,2.7348 0,4.63623 0,7.2337 9.54416,0 18.75711,0 28.31903,0 0,10.29377 0,19.89484 0,29.80726 2.15543,0 3.94113,0 6.36353,-0.002 0.13809,-0.56971 0.27618,-1.13935 0.48343,-2.6416 0,-8.94196 0,-17.88392 0,-27.4126 2.22818,0 4.00238,2.4e-4 5.77658,-6e-5 57.57178,-0.009 115.14355,-0.0145 172.71533,-0.0436 2.14752,-10e-4 4.29492,-0.2342 7.34051,-0.0475 49.23548,0.0114 98.47101,0.0247 147.70649,0.0186 0.81579,-1.3e-4 1.63165,-0.23658 3.33081,-0.0511 23.3211,0 46.64215,0 70.57214,0 -0.89673,4.4801 -1.60504,8.01886 -2.41071,12.12531 0.77521,-0.12848 1.55048,-0.25702 2.97834,-0.58887 8.5343,-4.90082 17.0686,-9.8017 26.32983,-15.12 -9.68921,-5.17987 -18.66357,-9.97754 -27.78473,-15.03167 0,0 -0.27533,-0.11811 -0.58435,-0.61329 z"
   id="path2" />
<path
   fill="#419fe1"
   opacity="1"
   stroke="none"
   d="m 468.22527,206.71605 c 16.07696,-4.86378 32.15643,-9.71927 48.22991,-14.59454 8.89057,-2.69664 17.77118,-5.42639 27.74927,-8.47516 -3.90771,21.75189 -7.67889,42.74371 -11.98852,63.88214 -1.35938,-0.94296 -2.1803,-2.0325 -3.92005,-4.34149 0,6.28464 0,11.1665 0,14.78424 -3.54168,1.79773 -6.02166,3.05658 -8.45398,4.2912 -0.18328,-4.51858 -1.61688,-5.33951 -6.151,-4.41308 -2.24249,0.45819 -4.987,0.52944 -6.9967,-0.36493 -4.47577,-1.99189 -8.57892,-4.80561 -12.95606,-7.04569 -1.10211,-0.564 -2.66497,-0.22781 -4.3656,-0.32535 1.60059,4.95001 2.96015,9.15439 4.31964,13.35877 -0.17395,-0.0787 -0.3479,-0.15738 -0.69238,-0.29145 -2.76959,0.14307 -5.36865,0.3415 -7.96765,0.53995 0.4372,1.81729 0.87445,3.63458 1.43793,5.9769 -0.2345,0.14798 -1.30042,1.23212 -1.71802,1.0228 -6.80676,-3.41242 -13.53143,-6.98856 -20.59796,-10.69742 2.55261,-2.80594 4.70245,-4.10208 8.17029,-1.5708 4.93798,3.60443 11.20776,1.01269 12.56085,-5.50901 -3.76874,0.51926 -7.33691,1.08381 -10.92493,1.45862 -1.01184,0.10575 -2.31299,-0.0571 -3.04114,-0.64352 -0.46228,-0.37222 -0.38592,-2.46054 -0.085,-2.57718 5.28687,-2.04962 7.64362,-6.17288 8.7251,-11.42633 0.13751,-0.66782 1.45032,-1.09366 2.76282,-2.01266 -4.83295,-4.56783 -9.42829,-8.8716 -13.95819,-13.24328 -0.55384,-0.53445 -0.71509,-1.45724 -1.12812,-2.15892 -3.20062,-5.43638 0.38868,-10.43435 0.98951,-15.62381 m 60.42864,33.94886 c 0.25947,0.27249 0.51893,0.54498 0.77839,0.81747 0.11285,-0.10748 0.2257,-0.21497 0.33856,-0.32242 -0.25983,-0.27264 -0.51966,-0.54526 -1.11695,-0.49505 z"
   id="path3" />
<path
   fill="#2a83d0"
   opacity="1"
   stroke="none"
   d="m 297.84666,350.10021 c -0.53576,-0.43903 -1.07153,-0.87805 -1.54345,-1.94598 -0.20899,-2.44681 -0.006,-5.5127 -0.84949,-5.83402 -2.02747,-0.77274 -4.61853,-1.25693 -5.59418,2.52905 -0.58825,2.28272 -3.04706,4.08341 -5.02319,6.14652 -1.00226,0.52252 -2.06183,0.88659 -2.22638,1.49344 -1.49628,5.51751 -5.18231,4.93399 -8.94263,3.0502 -2.62866,-1.31684 -4.76422,-3.61231 -7.38556,-4.95059 -6.66247,-3.4014 -6.74316,-3.34269 -3.11065,-9.59494 -1.22235,-0.63297 -2.42743,-1.25696 -4.14283,-2.14524 1.47541,-1.57077 2.85297,-2.76056 3.8415,-4.21478 0.44696,-0.65756 0.12048,-1.84085 0.14489,-2.78561 9.87226,-11.01599 19.74445,-22.03199 28.49518,-31.79651 7.50983,6.69742 15.12409,12.91299 22.06537,19.80618 11.93518,11.85248 23.45801,24.12045 35.1283,36.23871 0.91174,0.94671 1.62304,2.08645 2.26465,3.6564 -0.51709,7.48429 -11.76453,14.62952 -19.5235,12.75669 -1.4007,-0.33811 -3.16358,-0.62983 -3.99842,-1.59858 -3.10449,-3.60235 -6.13061,-7.32116 -8.73809,-11.29052 -3.38074,-5.14667 -4.96686,-5.84076 -11.73255,-3.78162 -0.48364,-0.31311 -0.67401,-0.5708 -0.66601,-1.16977 -0.28498,-1.09744 -0.69007,-1.91141 -1.33533,-2.99057 -1.41852,-0.4256 -2.59699,-0.58597 -3.82788,-1.06302 -1.13489,-0.3829 -2.21735,-0.44919 -3.29975,-0.51544 z"
   id="path4" />
<path
   fill="#2880cc"
   opacity="1"
   stroke="none"
   d="m 307.19072,355.95229 c 6.5506,-2.17242 8.13672,-1.47833 11.51746,3.66834 2.60748,3.96936 5.6336,7.68817 8.73809,11.29052 0.83484,0.96875 2.59772,1.26047 3.99842,1.59858 7.75897,1.87283 19.00641,-5.2724 19.61017,-12.42582 2.25445,1.51383 4.25921,3.21671 6.82464,5.39582 6.17731,-6.74741 12.38403,-13.52686 19.15729,-20.24936 1.72613,1.51547 2.88574,2.97393 4.02319,4.40451 -3.32074,5.29892 -2.5979,8.87408 1.56494,8.04175 6.51435,-1.30243 12.28327,2.84787 18.95832,0.88311 5.5664,-1.63849 7.66247,-2.46145 7.24273,-7.24728 1.98737,-1.05988 3.64868,-2.09064 5.4264,-2.84839 1.43487,-0.61157 3.01007,-0.89383 4.52301,-1.32224 -10.32904,11.50446 -20.65809,23.00895 -31.67524,34.66944 -3.44281,1.02161 -6.19751,1.88714 -8.56891,2.63226 -0.67248,1.90228 -1.11523,3.79514 -1.98181,5.46842 -1.62268,3.13315 -3.49096,6.13907 -5.25702,9.19796 0,0 -0.0421,-0.0878 -0.42419,-0.1065 -4.55847,1.28119 -9.46454,1.63266 -12.716,4.13455 -3.60736,2.77585 -5.11017,4.59604 -6.07276,-1.35788 -0.10364,-0.64108 -0.88641,-1.24396 -1.47046,-1.7225 -1.84741,-1.51358 -4.68103,-2.59449 -5.43249,-4.50992 -1.44904,-3.69357 -3.88031,-3.89707 -6.96308,-3.60114 -0.59637,-0.49777 -1.19274,-0.99554 -1.90197,-2.18493 -0.0794,-3.16214 0.37066,-5.59214 -3.33472,-6.2428 -1.5116,-0.26544 -3.42175,-2.05051 -3.92621,-3.55484 -1.53296,-4.57108 -5.59094,-5.31143 -9.13904,-6.93238 -0.31109,-0.009 -0.54785,-0.14627 -0.62799,-0.94595 0.62293,-1.80545 1.16352,-3.07681 1.70417,-4.34814 -0.43866,0.26367 -0.87739,0.52734 -1.31604,0.79101 -4.16028,-4.19204 -8.32062,-8.38412 -12.4809,-12.5762 z"
   id="path5" />
<path
   fill="#3e99dc"
   opacity="1"
   stroke="none"
   d="m 398.0385,225.94951 c 0.12335,0.32592 0.2467,0.65183 0.2923,1.70677 -1.56635,3.64313 2.7691,7.06615 -1.36158,10.26062 -1.29126,0.99865 0.20264,5.59878 0.42163,8.55028 -0.54156,0.0988 -1.08319,0.19751 -1.62475,0.29627 -0.9065,-1.69812 -1.72138,-3.45325 -2.73651,-5.08374 -3.133,-5.03211 -8.17865,-7.28559 -12.38184,-5.42987 -4.43219,0.53875 -8.43469,1.07525 -12.28217,1.27331 1.61268,-2.26687 3.07032,-4.19531 4.79426,-6.476 -5.6214,1.66381 -9.18671,-2.30821 -13.0373,-5.73286 -0.6054,-0.53838 -1.45538,-0.79219 -2.10864,-1.2878 -3.21582,-2.43985 -6.55566,-4.74623 -9.56012,-7.42663 -3.29925,-2.94347 -6.31683,-6.20841 -9.38946,-9.39842 -3.04718,-3.16359 -6.0102,-6.40828 -9.01008,-9.61742 17.42402,-13.05301 44.08411,-9.60407 58.08838,8.19072 0.81635,1.47121 1.53089,2.25329 2.24537,3.0354 0,0 -0.0372,0.10039 -0.0844,0.45642 0.85633,4.81226 1.75983,9.26849 2.63184,13.56949 1.62531,0.99164 3.3642,2.05255 5.10309,3.11346 z"
   id="path6" />
<path
   fill="#3c99de"
   opacity="1"
   stroke="none"
   d="m 467.82707,206.73371 c -0.20263,5.1718 -3.79193,10.16977 -0.59131,15.60615 0.41303,0.70168 0.57428,1.62447 1.12812,2.15892 4.5299,4.37168 9.12524,8.67545 13.95819,13.24328 -1.3125,0.919 -2.62531,1.34484 -2.76282,2.01266 -1.08148,5.25345 -3.43823,9.37671 -8.7251,11.42633 -0.3009,0.11664 -0.37726,2.20496 0.085,2.57718 0.72815,0.58642 2.0293,0.74927 3.04114,0.64352 3.58802,-0.37481 7.15619,-0.93936 10.92493,-1.45862 -1.35309,6.5217 -7.62287,9.11344 -12.56085,5.50901 -3.46784,-2.53128 -5.61768,-1.23514 -8.17029,1.5708 7.06653,3.70886 13.7912,7.285 20.59796,10.69742 0.4176,0.20932 1.48352,-0.87482 1.71802,-1.0228 -0.56348,-2.34232 -1.00073,-4.15961 -1.43793,-5.9769 2.599,-0.19845 5.19806,-0.39688 8.23389,-0.43515 -6.11817,7.86414 -12.67316,15.56815 -19.78028,23.53992 -0.78942,0.5755 -1.02667,0.88324 -1.26385,1.19098 0,0 -0.0211,-0.0625 -0.22113,0.0575 -0.39264,0.39414 -0.58521,0.66828 -0.77783,0.94239 0,0 -0.0201,-0.0663 -0.39905,-0.0565 -3.67279,-0.3324 -3.77295,1.79101 -3.57263,4.14642 -0.73749,0.89896 -1.47498,1.79791 -2.92908,2.79242 -2.50922,0.24472 -4.35852,0.7374 -6.07965,0.45337 -2.01007,-0.33173 -4.07062,-1.07285 -5.81342,-2.12595 -2.11975,-1.281 -3.76977,-3.35433 -5.91204,-4.57968 -3.5448,-2.02762 -6.29224,-3.98398 -4.91315,-8.89361 0.46893,-1.66938 -0.84113,-3.83838 -1.33826,-5.77906 10.46808,-11.96676 20.93616,-23.93347 31.5932,-36.11618 -9.39361,-8.41589 -18.23169,-16.33409 -28.156,-25.22545 8.75048,-2.53771 16.23822,-4.70924 24.1242,-6.8984 z"
   id="path7" />
<path
   fill="#1461b0"
   opacity="1"
   stroke="none"
   d="m 324.13841,519.18023 c -2.14746,0.12493 -4.29486,0.35803 -6.44238,0.35913 -57.57178,0.0291 -115.14355,0.0344 -172.71533,0.0436 -1.7742,3e-4 -3.5484,6e-5 -5.77658,6e-5 0,9.52868 0,18.47064 -0.23761,28.04053 -0.45258,1.09039 -0.66755,1.55285 -0.88251,2.01532 -1.78571,0 -3.57141,0 -5.72684,0 0,-9.91242 0,-19.51349 0,-29.80726 -9.56192,0 -18.77487,0 -28.31903,0 0,-2.59747 0,-4.4989 0,-7.2337 7.27255,0 14.52966,0.0693 21.78394,-0.0437 2.08035,-0.0324 4.15256,-0.59174 6.79663,-1.39026 0.90619,-2.17694 1.52661,-3.87128 1.53763,-5.56952 0.0878,-13.556 0.0602,-27.11276 0.47784,-40.68188 1.12137,-0.91486 2.43076,-1.80432 2.45038,-2.72138 0.16602,-7.76672 0.20264,-15.54165 -0.0325,-23.30472 -0.0302,-0.99774 -1.8382,-1.94162 -2.83164,-3.33108 -0.002,-1.82535 0.006,-3.23007 0.42316,-4.64777 1.12241,-1.58258 2.43982,-3.14691 2.45346,-4.7225 0.15036,-17.39941 0.0489,-34.801 0.17984,-52.20074 0.0126,-1.67783 1.12705,-3.34742 1.72998,-5.02085 0.0779,11.14029 0.21619,22.28055 0.22263,33.42087 0.0205,35.6011 -0.009,71.20221 -0.009,106.80331 0,0.96045 0.12435,1.9209 0.23873,3.57587 39.72406,0 79.2696,0 119.17768,0.48383 -1.30664,0.88964 -2.97315,1.63439 -4.64539,1.6474 -12.8197,0.0997 -25.64056,0.0408 -38.46093,0.0795 -1.57691,0.005 -3.15284,0.29505 -4.72925,0.45295 0.0525,0.50714 0.10498,1.01428 0.15747,1.52142 35.07867,0 70.15729,0 105.68005,6e-5 2.81384,7.9e-4 5.18366,0.002 7.55335,0.28131 -0.018,0.83606 -0.0359,1.39313 -0.0539,1.95014 M 205.7011,516.91973 c 0.66736,-0.21393 1.33465,-0.42786 2.00201,-0.64185 -0.0806,-0.40045 -0.16131,-0.80096 -0.24194,-1.20141 -1.21753,0.20337 -2.435,0.40674 -3.65253,0.61011 0.39844,0.40081 0.79688,0.80157 1.89246,1.23315 m -13.99793,-1.85681 c -1.43402,0 -2.86798,0 -4.302,0 0.0275,0.3208 0.055,0.6416 0.0825,0.96246 1.55237,-0.17303 3.1048,-0.34607 4.21948,-0.96246 m 8.68244,1.46496 c 0.005,-0.37524 0.009,-0.75055 0.0135,-1.12579 -0.15594,-0.002 -0.44745,-0.0142 -0.44818,-0.004 -0.0293,0.37348 -0.0315,0.74903 0.4347,1.1297 z"
   id="path8" />
<path
   fill="#2274c2"
   opacity="1"
   stroke="none"
   d="m 301.64409,287.05559 c -3.03906,-3.26764 -7.90967,-6.19958 -8.58795,-9.89993 -0.64313,-3.50894 3.43475,-7.70853 4.86023,-11.80493 3.90765,-11.22925 7.51745,-22.56226 11.23309,-33.85814 0.87781,-2.66861 1.70789,-5.35291 3.06372,-8.05808 0.61151,0.27677 0.85229,0.60311 0.80707,0.88332 -1.07904,6.68967 -2.15735,13.35696 6.69128,15.87442 0.23804,0.0677 0.36634,0.52139 0.38385,1.09991 -6.96289,9.27817 -7.28522,18.79966 -1.08618,28.71796 4.64746,7.78601 5.85578,7.93607 12.53369,2.73712 2.11109,-1.64355 4.72602,-2.63998 6.85388,-3.63781 -1.59228,4.44659 -2.92791,8.59841 -4.49884,13.48178 -5.17633,2.03326 -8.75146,12.29559 -5.74456,19.78445 1.68682,-0.4631 3.40405,-0.93457 5.26428,-1.41782 0.33343,-0.0574 0.49713,-0.15026 0.97473,-0.51992 1.13361,-0.43677 1.92645,-0.64408 2.85779,-0.51062 1.09942,0.71643 2.12121,1.51886 3.01056,1.39209 3.40161,-0.48493 6.73614,-1.45078 10.14007,-1.90601 9.38983,-1.25586 18.25586,0.9773 26.78565,4.65137 1.35223,0.58246 4.39245,1.63052 1.28399,3.96167 -1.44415,-0.91553 -2.69568,-1.59476 -4.22735,-2.51908 -12.80518,-4.97357 -25.34699,-5.39181 -38.24976,-0.38031 -2.10712,0.96146 -3.87445,1.91108 -6.03094,2.88755 -3.857,-0.32184 -7.32477,-0.67053 -10.79261,-1.01923 0,3e-5 0.0256,-0.0311 -0.0893,-0.23694 -0.29138,-0.47565 -0.53027,-0.66772 -0.83173,-0.78204 0,0 -0.0731,-0.0114 -0.10693,-0.34363 -0.59705,-0.7977 -1.16016,-1.26321 -1.72327,-1.7287 0,0 -0.19519,-0.022 -0.24621,-0.42087 -0.75336,-1.08334 -1.45557,-1.76788 -2.15784,-2.45242 0,0 0.10559,-0.0256 0.0119,-0.22186 -0.37518,-0.40354 -0.65668,-0.61081 -0.93817,-0.81809 0,0 0.0878,-3.6e-4 0.0803,-0.36361 -0.86676,-5.91285 -4.07122,-9.25788 -8.93164,-9.67893 0,0 -0.0563,0.002 -0.15759,-0.21756 -0.27399,-0.46246 -0.49243,-0.65249 -0.75659,-0.78995 0,0 -0.12952,-0.009 -0.22693,-0.23944 -0.25531,-0.44201 -0.44299,-0.62216 -0.66059,-0.77127 0,0 -0.22143,-0.0478 -0.30975,-0.2669 -0.20843,-0.35962 -0.33941,-0.48911 -0.48132,-0.60755 z"
   id="path9" />
<path
   fill="#2279c9"
   opacity="1"
   stroke="none"
   d="m 262.71428,331.98913 c 0.276,0.80389 0.60248,1.98718 0.15552,2.64474 -0.98853,1.45422 -2.36609,2.64401 -3.8415,4.21478 1.7154,0.88828 2.92048,1.51227 4.14283,2.14524 -3.63251,6.25225 -3.55182,6.19354 3.11065,9.59494 2.62134,1.33828 4.7569,3.63375 7.38556,4.95059 3.76032,1.88379 7.44635,2.46731 8.94263,-3.0502 0.16455,-0.60685 1.22412,-0.97092 2.28162,-1.13803 0.89221,0.80169 1.3714,1.29376 1.85064,1.78582 -11.17096,12.23471 -22.34185,24.46942 -34.19812,36.81128 -2.46722,1.23627 -4.24908,2.36542 -7.02581,4.12497 -4.63917,-2.4617 -10.27015,-4.64831 -14.85077,-8.19259 -2.58667,-2.0015 -3.44525,-6.23652 -5.08222,-9.46546 1.99658,-0.96655 3.99311,-1.93313 5.46161,-2.64407 1.37915,-2.31916 2.37451,-6.02741 3.94556,-6.28989 7.63629,-1.27591 4.04266,-7.81949 6.10736,-11.58325 7.10467,-7.92267 14.20935,-15.84534 21.61444,-23.90887 z"
   id="path10" />
<path
   fill="#328cd4"
   opacity="1"
   stroke="none"
   d="m 419.0562,347.01647 c -1.79376,0.55377 -3.36896,0.83603 -4.80383,1.4476 -1.77772,0.75775 -3.43903,1.78851 -5.4264,2.84839 0.41974,4.78583 -1.67633,5.60879 -7.24273,7.24728 -6.67505,1.96476 -12.44397,-2.18554 -18.95832,-0.88311 -4.16284,0.83233 -4.88568,-2.74283 -1.56494,-8.04175 -1.13745,-1.43058 -2.29706,-2.88904 -3.73657,-4.57038 12.45599,-14.3685 25.19183,-28.5141 38.31342,-42.38736 0.68139,2.36203 0.97705,4.45166 1.22058,6.1731 -2.5343,0.28143 -4.90076,-0.0706 -5.41718,0.74658 -0.76385,1.2085 -0.46979,3.2962 -0.16064,4.92102 0.42511,2.23419 1.41204,4.3562 1.92724,6.57981 0.67072,2.89505 2.58673,3.5996 4.7511,2.23938 2.92023,-1.83524 4.98114,-0.6977 6.98328,1.18698 1.98999,1.87326 3.72827,2.53964 6.51635,1.06424 2.64698,-1.4007 5.83875,-1.77173 8.79096,-2.59552 -6.97052,7.96612 -13.94098,15.93222 -21.19232,24.02374 z"
   id="path11" />
<path
   fill="#3895da"
   opacity="1"
   stroke="none"
   d="m 440.23015,322.98101 c -2.93384,0.83551 -6.12561,1.20654 -8.77259,2.60724 -2.78808,1.4754 -4.52636,0.80902 -6.51635,-1.06424 -2.00214,-1.88468 -4.06305,-3.02222 -6.98328,-1.18698 -2.16437,1.36022 -4.08038,0.65567 -4.7511,-2.23938 -0.5152,-2.22361 -1.50213,-4.34562 -1.92724,-6.57981 -0.30915,-1.62482 -0.60321,-3.71252 0.16064,-4.92102 0.51642,-0.81717 2.88288,-0.46515 5.41718,-0.74658 -0.24353,-1.72144 -0.53919,-3.81107 -0.91217,-6.35376 7.85675,-9.37308 15.79083,-18.29315 24.0227,-27.36798 0.79486,1.78592 2.10492,3.95492 1.63599,5.6243 -1.37909,4.90963 1.36835,6.86599 4.91315,8.89361 2.14227,1.22535 3.79229,3.29868 5.91204,4.57968 1.7428,1.0531 3.80335,1.79422 5.81342,2.12595 1.72113,0.28403 3.57043,-0.20865 5.81402,-0.32776 -7.16778,8.77881 -14.7865,17.52759 -22.81921,26.32916 -0.76611,0.0678 -0.96637,0.2685 -1.01465,0.65485 0,0 -0.0109,-0.039 0.007,-0.0273 z"
   id="path12" />
<path
   fill="#2574ba"
   opacity="1"
   stroke="none"
   d="m 324.19243,516.95116 c -2.36981,-7.9e-4 -4.73963,-0.002 -7.45423,-0.39441 1.49232,-0.79657 3.32807,-1.54657 5.16651,-1.5531 22.97601,-0.0811 45.95276,-0.009 68.92834,-0.14361 1.79334,-0.0105 3.57941,-1.27253 5.36884,-1.95282 0.44488,-0.0633 0.88977,-0.12653 1.7077,0.22613 1.3186,0.58392 2.2641,0.75189 3.67945,0.92536 5.15441,-0.27955 9.83898,-0.56446 14.52356,-0.84943 2.12762,-0.18176 4.25506,-0.52008 6.38281,-0.5221 39.07812,-0.0366 78.15631,-0.0329 117.23443,-0.0377 2.09223,-2.4e-4 4.18445,-6e-5 7.02143,-6e-5 -0.86713,-3.71185 -1.53308,-6.56225 -1.85022,-10.12243 0.56726,-0.94867 0.78589,-1.18756 1.00445,-1.42646 8.97437,4.79773 17.94873,9.5954 27.63794,14.77527 -9.26123,5.3183 -17.79553,10.21918 -27.21185,15.15631 -1.25427,0.0192 -1.62665,0.002 -1.99896,-0.0151 0.70831,-3.53876 1.41662,-7.07752 2.31335,-11.55762 -23.92999,0 -47.25104,0 -71.06354,-0.51184 -2.24304,-1.00586 -3.99408,-1.92865 -5.74652,-1.93152 -48.54773,-0.0787 -97.09564,-0.064 -145.64349,-0.0648 m 213.26227,-0.23004 c 1.67987,0 3.35974,0 5.03961,0 -0.0774,-0.60425 -0.15491,-1.20843 -0.2323,-1.81268 -1.79315,0.46026 -3.58624,0.92047 -4.80731,1.81268 z"
   id="path13" />
<path
   fill="#3a95d7"
   opacity="1"
   stroke="none"
   d="m 381.0775,236.24761 c 3.77344,-1.85349 8.81909,0.39999 11.95209,5.4321 1.01513,1.63049 1.83001,3.38562 2.73651,5.08374 0.54156,-0.0988 1.08319,-0.19751 1.62475,-0.29627 -0.21899,-2.9515 -1.71289,-7.55163 -0.42163,-8.55028 4.13068,-3.19447 -0.20477,-6.61749 1.3042,-10.00225 1.70044,4.36056 3.80786,9.09114 4.97406,14.04338 2.68677,11.4097 6.62451,22.27276 12.77954,32.25748 1.46619,2.3785 1.39911,3.91406 -0.59521,6.02847 -6.94727,7.36532 -13.65485,14.95669 -21.16803,22.60244 -4.78491,1.67579 -8.63275,1.04319 -12.27301,-1.37396 0.20593,-0.72986 0.35449,-1.13812 0.81665,-1.62832 0.33826,-1.35514 0.36285,-2.62833 0.29455,-4.10636 -0.25805,-0.46661 -0.48132,-0.66199 -0.85546,-1.11248 -0.0925,-0.7652 -0.0922,-1.20887 0.22314,-1.70762 0.60474,-0.37606 0.89447,-0.69705 1.18414,-1.01803 -0.66406,-0.28302 -1.32812,-0.56607 -2.14569,-1.07843 -0.21295,-0.77066 -0.27246,-1.31201 0.009,-1.91675 0.3255,-1.57886 0.77923,-3.31268 0.19671,-4.56424 -1.21148,-2.60321 -2.97198,-4.95093 -4.13891,-7.47958 0.8681,-0.90165 1.36816,-1.72733 2.18371,-2.40827 0.70868,0.38834 1.10187,0.63196 1.60889,1.0177 0.29541,0.31137 0.50403,0.43479 0.7713,0.49753 0.0315,-0.0147 0.0388,0.0545 0.26972,0.29599 1.41247,0.0332 2.59399,-0.17505 3.94372,-0.67462 1.69623,-3.08615 3.22418,-5.88104 4.9483,-8.98654 6.45478,-14.16703 2.93714,-24.31006 -10.22314,-30.35483 z"
   id="path14" />
<path
   fill="#1c6fc2"
   opacity="1"
   stroke="none"
   d="m 240.78362,356.01506 c -1.74848,3.6467 1.84515,10.19028 -5.79114,11.46619 -1.57105,0.26248 -2.56641,3.97073 -3.94556,6.28989 -1.4685,0.71094 -3.46503,1.67752 -5.46161,2.64407 1.63697,3.22894 2.49555,7.46396 5.08222,9.46546 4.58062,3.54428 10.2116,5.73089 14.85077,8.19259 2.77673,-1.75955 4.55859,-2.8887 6.72003,-4.01428 -7.456,9.03528 -15.29157,18.06702 -23.70838,26.8472 -5.14782,-1.0224 -2.61847,2.53131 -3.26373,4.1503 0,0 -0.035,-0.071 -0.23688,0.0421 -0.39874,0.40293 -0.59564,0.69281 -0.79254,0.98267 0,0 0.009,-0.0803 -0.31451,-0.0876 -1.45844,0.31491 -2.59308,0.63724 -4.04804,0.81421 -3.45111,-2.22467 -6.77649,-4.06769 -9.66308,-6.44373 -3.53174,-2.90704 -6.69574,-6.2608 -10.01661,-9.87075 -0.15563,-1.95255 -0.31347,-3.45578 -0.47125,-4.95902 0,0 0.0831,-4.9e-4 0.37561,0.022 0.42359,-0.328 0.55463,-0.67849 0.68567,-1.02896 6e-5,0 0.0558,0.15726 0.3302,0.0866 0.52875,-0.64978 0.7832,-1.22894 1.03772,-1.80807 -6e-5,-0.32285 0.12848,-0.58188 0.98572,-0.82727 1.86359,0.15268 3.12701,0.35556 4.56799,0.58691 0.71094,-4.89368 2.52832,-8.57614 6.81592,-8.31891 1.6759,-2.95059 2.91931,-5.07544 4.09772,-7.23572 0.90405,-1.65731 1.72626,-3.35937 2.5849,-5.04156 0.0288,-0.33694 0.17114,-0.61606 0.89123,-1.07221 0.65174,-0.55096 0.83924,-0.86697 1.02674,-1.18298 5.78155,-6.52737 11.56305,-13.05472 17.66089,-19.6991 z"
   id="path15" />
<path
   fill="#1467c1"
   opacity="1"
   stroke="none"
   d="m 200.19243,406.94262 c 3.323,3.16064 6.487,6.5144 10.01874,9.42144 2.88659,2.37604 6.21197,4.21906 9.41186,6.71149 -1.08917,1.33164 -3.06744,2.11081 -3.25159,3.19479 -0.55072,3.24149 -2.16516,4.51993 -5.2965,4.83408 -0.98993,0.0993 -2.6518,1.55414 -2.594,2.27533 0.10279,1.28211 1.28333,2.47778 2.01306,3.70963 -0.77716,1.22857 -1.55426,2.45712 -3.01886,3.8236 -2.21838,1.43677 -3.74933,2.73566 -5.49609,4.14771 -0.48492,0.31427 -0.67358,0.57388 -0.91773,1.19989 -0.36669,1.16125 -0.59735,2.01468 -0.82806,2.8681 0.0219,0.32724 -0.10333,0.58213 -1.02924,0.80332 -2.11187,0.0277 -3.57025,0.0167 -5.479,0.007 -6.26971,0.57507 -11.3584,-0.33694 -15.54687,-5.1907 -2.39868,-2.77966 -5.94745,-4.56696 -8.97901,-7.18198 -0.009,-1.14316 -0.0165,-1.90536 -0.0245,-2.66757 0,0 0.0278,0.0419 0.23083,-0.0796 0.38941,-0.40659 0.57575,-0.69168 0.76202,-0.97675 0,0 0.008,0.0894 0.19855,-0.042 0.39478,-0.42148 0.59918,-0.71155 0.80353,-1.00159 -0.028,-0.32339 0.0891,-0.58071 0.82953,-0.9476 0.67541,-0.49521 0.87268,-0.81482 1.06995,-1.13443 0,0 -0.02,0.0963 0.24011,0.13074 0.46063,0.0608 0.66119,0.0872 0.90906,0.44794 0.82354,0.90787 1.59991,1.48135 2.37628,2.05487 -0.13483,-1.13703 -0.26966,-2.27405 -0.4173,-3.79047 -0.0865,-0.88022 -0.16028,-1.38104 -0.23401,-1.8819 0,0 0.069,0.0821 0.29773,0.0145 0.39142,-0.40079 0.55414,-0.73398 0.7168,-1.0672 0,0 0.0378,0.13175 0.26098,0.0553 0.37397,-0.41696 0.52478,-0.75742 0.6756,-1.0979 0,0 0.0419,0.12817 0.27606,0.0614 0.35608,-0.41602 0.47815,-0.76532 0.60016,-1.11462 0,0 0.11469,0.23513 0.35974,0.12204 0.49659,-0.67548 0.74811,-1.23786 0.99958,-1.80024 0,0 0.0511,0.0825 0.40051,0.0767 1.48968,-0.64923 2.80579,-1.10534 3.73254,-1.97601 1.77576,-1.66839 3.01038,-4.2373 5.05298,-5.21991 2.94104,-1.41485 3.1214,-3.36419 2.76715,-5.92932 0,0 0.0621,0.10919 0.38105,0.074 2.78875,-1.00162 5.25854,-1.96811 7.72839,-2.93457 m 1.51874,33.43399 c 0,0 0.0545,0.0972 0,0 z"
   id="path16" />
<path
   fill="#2579c0"
   opacity="1"
   stroke="none"
   d="m 132.46297,250.0176 c -0.0985,-22.64669 -0.19754,-45.29335 -0.29444,-67.94004 -0.008,-1.81312 -9.7e-4,-3.62629 -9.7e-4,-6.17814 -4.03589,0.98602 -7.62018,1.86172 -12.26239,2.99589 5.29559,-10.28056 10.23581,-19.87117 15.64596,-30.37414 5.54144,10.31273 10.73465,19.97737 16.4863,30.6813 -4.70572,-1.24632 -8.42612,-2.23167 -12.82596,-3.39697 0,10.40579 0,20.33051 -0.47668,30.83048 -0.82819,2.27278 -1.47464,3.96855 -1.48474,5.6681 -0.084,14.12972 -0.0509,28.26015 -0.0527,42.39034 -0.003,23.43951 0.0109,46.87906 -0.0371,70.31848 -0.004,2.11017 0.98102,5.05896 -2.95206,4.45752 -0.0139,-25.0947 0.009,-49.72199 -0.1083,-74.3486 -0.008,-1.70401 -1.06674,-3.40293 -1.63684,-5.10422 z"
   id="path17" />
<path
   fill="#3691d6"
   opacity="1"
   stroke="none"
   d="m 329.74345,197.66808 c 3.31067,3.12508 6.27369,6.36977 9.32087,9.53336 3.07263,3.19001 6.09021,6.45495 9.38946,9.39842 3.00446,2.6804 6.3443,4.98678 9.56012,7.42663 0.65326,0.49561 1.50324,0.74942 2.10864,1.2878 3.85059,3.42465 7.4159,7.39667 13.0373,5.73286 -1.72394,2.28069 -3.18158,4.20913 -5.06104,6.69155 -2.26416,1.38162 -4.10644,2.20926 -6.07129,2.9154 -0.33301,0.0672 -0.54352,0.2558 -0.9884,0.68012 -1.10089,0.33249 -1.96741,0.42932 -2.93854,0.1557 -4.18909,-0.7157 -8.27362,-1.06085 -12.51874,-1.37522 -0.16052,0.0308 -0.38086,-0.21081 -0.56714,-0.43533 -0.737,-0.3804 -1.28765,-0.53628 -1.84033,-0.70468 -0.002,-0.0125 -0.0289,0.009 -0.15887,-0.31812 -2.03638,-1.75119 -3.94281,-3.17504 -6.13703,-4.81387 0.13233,-0.45775 0.4162,-1.43992 0.92688,-3.2068 -5.80578,1.90616 -8.73761,-1.84868 -10.14837,-5.48164 -2.53815,-6.53632 -3.81543,-13.56229 -5.61945,-20.3837 0,0 0.0668,0.06 0.2829,-0.0188 0.40967,-0.37894 0.60321,-0.679 0.79669,-0.97907 0,-1e-5 -0.0751,0.0972 0.26453,0.0718 1.12994,-1.10376 1.92022,-2.18209 2.71057,-3.2604 1.11352,-0.94396 2.22699,-1.88795 3.65124,-2.91598 z"
   id="path18" />
<path
   fill="#125fb9"
   opacity="1"
   stroke="none"
   d="m 169.19975,437.94768 c 3.03095,2.23407 6.57972,4.02137 8.9784,6.80103 4.18847,4.85376 9.27716,5.76577 15.5531,5.57098 -0.55768,4.95484 -3.35157,7.39823 -7.05939,7.40759 -1.01196,2.61435 -1.83002,4.75376 -2.66846,6.88517 -0.57788,1.46893 -1.18402,2.92675 -1.77752,4.38955 0,-3e-5 -0.0317,-0.0506 -0.37684,-0.0348 -1.05212,0.76712 -1.75915,1.51856 -2.46612,2.26999 0,0 -0.0262,-0.13022 -0.34613,-0.13571 -1.14655,1.32455 -1.97309,2.65463 -2.79962,3.98468 -1.06366,1.24078 -2.12738,2.4816 -3.93,3.81061 -3.33404,0.0882 -5.92901,0.0882 -9.07489,0.0882 0,-10.8186 -0.0273,-21.85821 0.0531,-32.897 0.006,-0.8624 0.62885,-1.82648 1.20179,-2.5578 1.50085,-1.91565 3.13287,-3.72858 4.71258,-5.58243 z"
   id="path19" />
<path
   fill="#3c99de"
   opacity="1"
   stroke="none"
   d="m 494.01256,263.57271 c -1.67987,-4.30493 -3.03943,-8.50931 -4.64002,-13.45932 1.70063,0.0975 3.26349,-0.23865 4.3656,0.32535 4.37714,2.24008 8.48029,5.0538 12.95606,7.04569 2.0097,0.89437 4.75421,0.82312 6.9967,0.36493 4.53412,-0.92643 5.96772,-0.1055 6.151,4.41308 2.43232,-1.23462 4.9123,-2.49347 8.45398,-4.2912 0,-3.61774 0,-8.4996 0,-14.78424 1.73975,2.30899 2.56067,3.39853 3.69648,4.6517 -0.69092,6.23395 -1.69672,12.30432 -3.03443,18.96796 -0.42358,0.96652 -0.5152,1.33978 -0.60681,1.71304 -0.84857,6.02933 -1.69708,12.05863 -2.72443,19.35804 -7.33062,-6.71592 -13.64788,-12.50489 -19.96704,-18.29181 -1.96252,-1.79718 -4.1264,-3.42096 -5.84192,-5.4285 -1.83538,-2.14798 -3.51416,-1.94992 -5.80517,-0.58472 m 23.466,-0.16397 c -0.27221,0.25928 -0.54449,0.51859 -0.81677,0.77786 0.10742,0.11274 0.21478,0.2255 0.3222,0.33829 0.27234,-0.25961 0.54462,-0.51926 0.49457,-1.11615 z"
   id="path20" />
<path
   fill="#1467c1"
   opacity="1"
   stroke="none"
   d="m 134.2115,329.93798 c 3.92969,0.13388 2.94437,-2.81491 2.94867,-4.92508 0.048,-23.43942 0.0341,-46.87897 0.0371,-70.31848 0.002,-14.13019 -0.0313,-28.26062 0.0527,-42.39034 0.0101,-1.69955 0.65655,-3.39532 1.38211,-5.2072 0.45584,18.66449 0.59338,37.4433 0.60733,56.22217 0.0259,34.90744 -0.0202,69.81491 -0.13446,105.18344 -0.70108,2.13449 -1.81553,3.80408 -1.82813,5.48191 -0.13089,17.39974 -0.0295,34.80133 -0.17984,52.20074 -0.0136,1.57559 -1.33105,3.13992 -2.46008,4.25699 -0.41986,-33.80304 -0.42267,-67.1536 -0.42548,-100.50415 z"
   id="path21" />
<path
   fill="#0a59a9"
   opacity="1"
   stroke="none"
   d="m 134.20811,329.47042 c 0.006,33.81811 0.009,67.16867 0.0184,100.98471 -5.8e-4,1.87021 -0.008,3.27493 -0.0127,5.56579 0.005,10.2255 0.008,19.56489 0.0104,28.90424 -0.008,13.55655 0.0199,27.11331 -0.068,40.66931 -0.011,1.69824 -0.63144,3.39258 -1.33896,5.21289 -0.46533,-8.52002 -0.64695,-17.16424 -0.64359,-25.80841 0.0305,-78.02157 0.0934,-156.04315 0.21799,-234.52304 0.6413,1.24298 1.69989,2.9419 1.70804,4.64591 0.11773,24.62661 0.0944,49.2539 0.1083,74.3486 z"
   id="path22" />
<path
   fill="#1d6cb5"
   opacity="1"
   stroke="none"
   d="m 395.73991,512.81603 c -1.32745,0.77148 -3.11352,2.03351 -4.90686,2.04401 -22.97558,0.13458 -45.95233,0.0626 -68.92834,0.14361 -1.83844,0.007 -3.67419,0.75653 -5.61054,1.55304 -35.17797,0.39203 -70.25659,0.39203 -105.33526,0.39203 -0.0525,-0.50714 -0.10498,-1.01428 -0.15747,-1.52142 1.57641,-0.1579 3.15234,-0.44818 4.72925,-0.45295 12.82037,-0.0387 25.64123,0.0202 38.46093,-0.0795 1.67224,-0.013 3.33875,-0.75776 5.10681,-1.55634 2.80487,-0.45544 5.51093,-0.51801 8.7511,-0.0958 3.61969,1.97449 6.68628,3.24299 9.34369,-0.26928 11.95221,-0.0961 23.9043,-0.26087 35.85657,-0.27423 27.4093,-0.0307 54.81872,0.0124 82.69012,0.11688 z"
   id="path23" />
<path
   fill="#2a83d0"
   opacity="1"
   stroke="none"
   d="m 321.72563,204.90493 c 2.11591,6.68704 3.39319,13.71301 5.93134,20.24933 1.41076,3.63296 4.34259,7.3878 10.14837,5.48164 -0.51068,1.76688 -0.79455,2.74905 -0.92688,3.2068 2.19422,1.63883 4.10065,3.06268 5.76502,4.78418 -8.04645,-3.55612 -15.49024,-3.5388 -22.38611,2.36045 -0.1795,-0.27369 -0.3078,-0.72733 -0.54584,-0.79508 -8.84863,-2.51746 -7.77032,-9.18475 -6.69128,-15.87442 0.0452,-0.28021 -0.19556,-0.60655 -0.57807,-1.16216 2.80732,-6.20596 5.88947,-12.16116 9.28345,-18.25074 z"
   id="path24" />
<path
   fill="#1d6cb5"
   opacity="1"
   stroke="none"
   d="m 324.19231,517.23015 c 48.54797,-0.27819 97.09588,-0.29291 145.64361,-0.21417 1.75244,0.003 3.50348,0.92566 5.30487,1.7757 -0.76611,0.48217 -1.58197,0.71862 -2.39776,0.71875 -49.23548,0.006 -98.47101,-0.007 -148.15558,-0.17438 -0.43109,-0.71283 -0.41315,-1.2699 -0.39514,-2.1059 z"
   id="path25" />
<path
   fill="#2274c2"
   opacity="1"
   stroke="none"
   d="m 374.16624,325.86058 c -3.17706,3.5673 -6.35418,7.13459 -10.05157,10.69507 -1.41077,0.0501 -2.54755,-0.22372 -3.14758,0.22309 -2.20337,1.6409 -4.22852,3.52115 -6.32074,5.31128 0.70562,-0.57346 1.41119,-1.14695 2.11682,-1.72043 -1.83045,-0.79904 -3.94177,-1.25653 -5.42584,-2.47681 -2.24945,-1.84964 -4.09259,-4.20303 -6.05042,-6.39413 -1.23529,-1.38245 -2.09149,-3.35544 -3.60071,-4.18744 -2.88903,-1.59256 -3.74469,-3.50107 -2.12976,-6.31775 1.42243,0.54754 2.51935,0.95202 3.87378,1.5849 8.81964,4.07019 17.05335,2.92868 25.3584,-1.44089 0.65588,-0.0911 1.02978,-0.14895 1.44665,0.14227 1.339,1.75965 2.63495,3.17023 3.93097,4.58084 z"
   id="path26" />
<path
   fill="#3584c3"
   opacity="1"
   stroke="none"
   d="m 374.46037,325.71157 c -1.59015,-1.2616 -2.8861,-2.67218 -4.05841,-4.72043 3.82117,-4.00498 8.67365,-6.59494 8.26105,-12.72839 2.91589,-2.56748 -0.12433,-3.61554 -1.47656,-4.198 -8.52979,-3.67407 -17.39582,-5.90723 -26.78565,-4.65137 -3.40393,0.45523 -6.73846,1.42108 -10.14007,1.90601 -0.88935,0.12677 -1.91114,-0.67566 -2.72553,-1.61036 9.14325,-3.60855 18.3291,-4.47402 27.6272,-2.41302 5.64532,1.25137 11.18426,2.98248 16.77099,4.49805 3.69764,2.09555 7.54548,2.72815 12.03638,1.1969 -6.12475,7.52664 -12.67004,15.04913 -19.5094,22.72061 z"
   id="path27" />
<path
   fill="#1d6cb5"
   opacity="1"
   stroke="none"
   d="m 339.23088,320.85039 c -1.28937,2.95975 -0.43371,4.86826 2.45532,6.46082 1.50922,0.832 2.36542,2.80499 3.60071,4.18744 1.95783,2.1911 3.80097,4.54449 6.05042,6.39413 1.48407,1.22028 3.59539,1.67777 5.42584,2.47681 -0.70563,0.57348 -1.4112,1.14697 -2.11682,1.72043 2.09222,-1.79013 4.11737,-3.67038 6.32074,-5.31128 0.60003,-0.44681 1.73681,-0.17295 2.84918,-0.0684 -2.58728,3.58081 -5.39649,7.00015 -8.72925,11.05676 -12.19012,-13.70895 -23.94257,-26.92569 -35.80609,-40.45709 3.35669,0.0341 6.82446,0.38275 10.62829,1.08432 0.71717,6.32803 5.74909,8.85031 9.32166,12.45608 z"
   id="path28" />
<path
   fill="#2274c2"
   opacity="1"
   stroke="none"
   d="m 338.34612,392.2528 c 2.95007,-0.60221 5.38134,-0.39871 6.83038,3.29486 0.75146,1.91543 3.58508,2.99634 5.43249,4.50992 0.58405,0.47854 1.36682,1.08142 1.47046,1.7225 0.96259,5.95392 2.4654,4.13373 6.07276,1.35788 3.25146,-2.50189 8.15753,-2.85336 12.76288,-4.12134 -3.43073,4.9473 -7.29041,9.86267 -11.59235,15.34119 -7.36408,-7.70148 -14.10401,-14.75012 -20.97662,-22.10501 z"
   id="path29" />
<path
   fill="#0a59a9"
   opacity="1"
   stroke="none"
   d="m 169.19914,437.56673 c -1.5791,2.2348 -3.21112,4.04773 -4.71197,5.96338 -0.57294,0.73132 -1.19556,1.6954 -1.20179,2.5578 -0.0804,11.03879 -0.0531,22.0784 -0.0531,32.897 3.14588,0 5.74085,0 8.78681,0.0245 -2.9148,4.41409 -6.28052,8.80368 -10.48431,14.28622 -0.2909,-2.50897 -0.51191,-3.53073 -0.51227,-4.55255 -0.005,-12.29007 0.55188,-24.61056 -0.15369,-36.85885 -0.42743,-7.41941 2.71655,-12.21854 8.0271,-16.79535 0.28668,0.57245 0.29462,1.33465 0.30322,2.47781 z"
   id="path30" />
<path
   fill="#2274c2"
   opacity="1"
   stroke="none"
   d="m 306.97563,355.83901 c 4.37537,4.30536 8.53571,8.49744 12.69599,12.68948 0.43865,-0.26367 0.87738,-0.52734 1.31604,-0.79101 -0.54065,1.27133 -1.08124,2.54269 -1.75763,4.14233 -6.79029,-6.51654 -13.44477,-13.36142 -19.85535,-20.54486 0.77069,-0.35989 1.29749,-0.38126 1.82422,-0.40262 1.1784,0.16037 2.35687,0.32074 3.77038,1.08371 0.56348,1.38062 0.89185,2.15863 1.22028,2.93665 0.11206,0.31552 0.30243,0.57321 0.78607,0.88632 z"
   id="path31" />
<path
   fill="#0a59a9"
   opacity="1"
   stroke="none"
   d="m 182.5258,468.85412 c 0.29358,-1.31492 0.89972,-2.77274 1.4776,-4.24167 0.83844,-2.13141 1.6565,-4.27082 2.66846,-6.88517 3.70782,-0.009 6.50171,-2.45275 7.5097,-7.40927 1.45221,-0.36929 2.91059,-0.35833 4.80719,-0.33297 -5.09558,6.25 -10.62939,12.48556 -16.46295,18.86908 z"
   id="path32" />
<path
   fill="#1d6cb5"
   opacity="1"
   stroke="none"
   d="m 220.90678,378.11632 c -0.56066,1.53522 -1.38287,3.23728 -2.28692,4.89459 -1.17841,2.16028 -2.42182,4.28513 -4.09772,7.23572 -4.2876,-0.25723 -6.10498,3.42523 -6.81592,8.31891 -1.44098,-0.23135 -2.7044,-0.43423 -4.35827,-0.66424 5.49328,-6.56412 11.37707,-13.10108 17.55883,-19.78498 z"
   id="path33" />
<path
   fill="#2274c2"
   opacity="1"
   stroke="none"
   d="m 371.6226,399.02703 c 1.43586,-2.97601 3.30414,-5.98193 4.92682,-9.11508 0.86658,-1.67328 1.30933,-3.56614 1.98181,-5.46842 2.3714,-0.74512 5.1261,-1.61065 8.26691,-2.48852 -4.69098,5.65481 -9.76813,11.32196 -15.17554,17.07202 z"
   id="path34" />
<path
   fill="#125fb9"
   opacity="1"
   stroke="none"
   d="m 210.79387,436.95574 c -1.0296,-1.09821 -2.21014,-2.29388 -2.31293,-3.57599 -0.0578,-0.72119 1.60407,-2.17603 2.594,-2.27533 3.13134,-0.31415 4.74578,-1.59259 5.2965,-4.83408 0.18415,-1.08398 2.16242,-1.86315 3.57184,-3.04943 1.38593,-0.59009 2.52057,-0.91242 4.01624,-1.21152 -4.04798,4.95303 -8.45691,9.88287 -13.16565,14.94635 z"
   id="path35" />
<path
   fill="#2274c2"
   opacity="1"
   stroke="none"
   d="m 320.05437,373.34322 c 3.40521,1.3093 7.46319,2.04965 8.99615,6.62073 0.50446,1.50433 2.41461,3.2894 3.92621,3.55484 3.70538,0.65066 3.25531,3.08066 3.22516,5.96798 -5.3327,-4.99942 -10.6687,-10.41568 -16.14752,-16.14355 z"
   id="path36" />
<path
   fill="#2880cc"
   opacity="1"
   stroke="none"
   d="m 286.93828,352.89302 c -0.67529,-0.24807 -1.15448,-0.74014 -1.68891,-1.58764 1.56311,-2.37271 4.02192,-4.1734 4.61017,-6.45612 0.97565,-3.78598 3.56671,-3.30179 5.59418,-2.52905 0.84326,0.32132 0.6405,3.38721 0.74774,5.59082 -0.33789,0.2858 -0.51013,0.18591 -0.87756,-0.34509 -0.50055,-0.51795 -0.80603,-0.60477 -1.11151,-0.69156 -2.35938,1.92486 -4.71869,3.84976 -7.27411,6.01864 z"
   id="path37" />
<path
   fill="#3a95d7"
   opacity="1"
   stroke="none"
   d="m 398.03538,225.57674 c -1.73577,-0.68814 -3.47466,-1.74905 -5.09997,-2.74069 -0.87201,-4.301 -1.77551,-8.75723 -2.64301,-13.62183 2.60401,5.05767 5.17194,10.52372 7.74298,16.36252 z"
   id="path38" />
<path
   fill="#1d6cb5"
   opacity="1"
   stroke="none"
   d="m 191.77739,409.94085 c 0.65985,2.42743 0.47949,4.37677 -2.46155,5.79162 -2.0426,0.98261 -3.27722,3.55152 -5.05298,5.21991 -0.92675,0.87067 -2.24286,1.32678 -3.77405,1.9509 3.40033,-4.28775 7.19166,-8.55624 11.28858,-12.96243 z"
   id="path39" />
<path
   fill="#1d6cb5"
   opacity="1"
   stroke="none"
   d="m 304.34831,290.26214 c 4.74897,0.10717 7.95343,3.4522 8.78711,9.39398 -2.90893,-2.76526 -5.7923,-5.92267 -8.78711,-9.39398 z"
   id="path40" />
<path
   fill="#1d6cb5"
   opacity="1"
   stroke="none"
   d="m 200.19456,406.49328 c -2.47198,1.4158 -4.94177,2.38229 -7.78259,3.34881 1.99903,-2.67462 4.36902,-5.34924 7.02521,-8.16583 0.44391,1.36127 0.60175,2.8645 0.75738,4.81702 z"
   id="path41" />
<path
   fill="#4c8fc6"
   opacity="1"
   stroke="none"
   d="m 415.83635,512.91063 c -4.40833,0.58362 -9.0929,0.86853 -14.24597,0.92951 -0.46857,-0.224 -0.37543,-0.64954 -0.37543,-0.64954 4.78168,-0.19287 9.56342,-0.38568 14.6214,-0.27997 z"
   id="path42" />
<path
   fill="#0a59a9"
   opacity="1"
   stroke="none"
   d="m 200.53691,448.97478 c -0.0729,-0.69952 0.15772,-1.55295 0.73999,-2.82757 0.62061,-0.62235 0.80939,-0.88184 0.91797,-1.19971 1.53094,-1.29886 3.06189,-2.59775 4.98889,-3.90753 -1.8504,2.58633 -4.0968,5.18362 -6.64685,7.93481 z"
   id="path43" />
<path
   fill="#1461b0"
   opacity="1"
   stroke="none"
   d="m 276.75041,512.8839 c -2.2146,3.60175 -5.28119,2.33325 -8.46057,0.46375 2.60999,-0.43757 5.3139,-0.49543 8.46057,-0.46375 z"
   id="path44" />
<path
   fill="#125fb9"
   opacity="1"
   stroke="none"
   d="m 225.56798,420.91741 c 0.3435,-1.47992 -2.18585,-5.03363 2.617,-3.96951 -0.61432,1.47232 -1.46478,2.65136 -2.617,3.96951 z"
   id="path45" />
<path
   fill="#3895da"
   opacity="1"
   stroke="none"
   d="m 467.54155,292.9616 c -0.4906,-2.21076 -0.39044,-4.33417 3.30945,-3.9802 -0.73572,1.28635 -1.87744,2.56095 -3.30945,3.9802 z"
   id="path46" />
<path
   fill="#0a59a9"
   opacity="1"
   stroke="none"
   d="m 176.54375,474.9414 c 0.51995,-1.18534 1.34649,-2.51542 2.55755,-3.82434 -0.49395,1.24063 -1.37243,2.46014 -2.55755,3.82434 z"
   id="path47" />
<path
   fill="#1d6cb5"
   opacity="1"
   stroke="none"
   d="m 175.65507,427.79815 c 0.36182,0.3811 0.43555,0.88192 0.26239,1.87463 -0.74676,0.75748 -1.24664,1.0231 -1.74652,1.28873 -0.20062,-0.0264 -0.40118,-0.0527 -0.89807,-0.14679 0.50055,-1.01071 1.29737,-1.95374 2.3822,-3.01657 z"
   id="path48" />
<path
   fill="#2a83d0"
   opacity="1"
   stroke="none"
   d="m 325.75999,200.68377 c -0.45813,0.9786 -1.24841,2.05693 -2.41973,3.11517 0.44189,-1.01854 1.26477,-2.01698 2.41973,-3.11517 z"
   id="path49" />
<path
   fill="#1d6cb5"
   opacity="1"
   stroke="none"
   d="m 400.87187,512.99633 c 0.34308,0.19427 0.24994,0.61981 0.24866,0.83838 -0.94684,0.0505 -1.89234,-0.11744 -2.88477,-0.60327 0.7331,-0.35505 1.513,-0.39222 2.63611,-0.23511 z"
   id="path50" />
<path
   fill="#2880cc"
   opacity="1"
   stroke="none"
   d="m 301.14641,350.61565 c -0.47424,0.33804 -1.00104,0.35941 -1.92285,0.4097 -0.73334,-0.0254 -0.99512,-0.19675 -1.27863,-0.70511 0.98413,-0.15378 2.06659,-0.0875 3.20148,0.29541 z"
   id="path51" />
<path
   fill="#3a95d7"
   opacity="1"
   stroke="none"
   d="m 390.33226,208.49396 c -0.65875,-0.46593 -1.37329,-1.24801 -2.06946,-2.41353 0.68347,0.4435 1.34863,1.27043 2.06946,2.41353 z"
   id="path52" />
<path
   fill="#0a59a9"
   opacity="1"
   stroke="none"
   d="m 179.70964,471.21029 c 0.38025,-0.72458 1.08728,-1.47602 2.16589,-2.22934 -0.36523,0.73285 -1.10217,1.46768 -2.16589,2.22934 z"
   id="path53" />
<path
   fill="#1d6cb5"
   opacity="1"
   stroke="none"
   d="m 314.08183,301.32473 c 0.63489,0.39056 1.3371,1.0751 2.10535,2.06134 -0.63532,-0.38797 -1.33667,-1.07767 -2.10535,-2.06134 z"
   id="path54" />
<path
   fill="#1d6cb5"
   opacity="1"
   stroke="none"
   d="m 316.49358,304.17025 c 0.48803,0.19928 1.05114,0.66479 1.65063,1.42563 -0.50091,-0.18961 -1.03821,-0.67453 -1.65063,-1.42563 z"
   id="path55" />
<path
   fill="#4c8fc6"
   opacity="1"
   stroke="none"
   d="m 544.28398,531.30077 c 0.42096,-0.26666 0.79334,-0.24951 1.72131,-0.16699 -0.21954,0.19385 -0.99481,0.32239 -1.72131,0.16699 z"
   id="path56" />
<path
   fill="#4c8fc6"
   opacity="1"
   stroke="none"
   d="m 138.40233,549.63805 c -0.10337,-0.46161 0.1116,-0.92407 0.5296,-1.54822 0.0649,0.40808 -0.0731,0.97772 -0.5296,1.54822 z"
   id="path57" />
<path
   fill="#1d6cb5"
   opacity="1"
   stroke="none"
   d="m 179.86943,422.98082 c 0.009,0.43326 -0.24261,0.99564 -0.82605,1.57331 -0.0327,-0.47125 0.26648,-0.95774 0.82605,-1.57331 z"
   id="path58" />
<path
   fill="#2274c2"
   opacity="1"
   stroke="none"
   d="m 294.34734,347.01903 c 0.17053,-0.0579 0.47601,0.029 0.81188,0.2977 -0.23675,0.1366 -0.47253,0.0249 -0.81188,-0.2977 z"
   id="path59" />
<path
   fill="#1d6cb5"
   opacity="1"
   stroke="none"
   d="m 201.88487,398.94326 c 0.0131,0.44177 -0.24133,1.02093 -0.83526,1.61862 -0.0372,-0.48139 0.26526,-0.98132 0.83526,-1.61862 z"
   id="path60" />
<path
   fill="#2574ba"
   opacity="1"
   stroke="none"
   d="m 545.48338,500.726 c 0,0 0.27533,0.11811 0.3487,0.24628 -0.14514,0.36713 -0.36377,0.60602 -0.96283,1.14966 -0.51197,-0.0209 -0.64337,-0.34656 -0.41907,-0.96961 0.5816,-0.34039 0.80743,-0.38336 1.0332,-0.42633 z"
   id="path61" />
<path
   fill="#419fe1"
   opacity="1"
   stroke="none"
   d="m 528.59172,268.3377 c -0.14899,-0.19126 -0.0574,-0.56452 0.24432,-1.13675 0.13874,0.18558 0.0675,0.57016 -0.24432,1.13675 z"
   id="path62" />
<path
   fill="#328cd4"
   opacity="1"
   stroke="none"
   d="m 440.45598,322.93368 c -0.185,-0.31174 0.0153,-0.51243 0.50171,-0.44043 0.13434,0.087 -0.26837,0.36581 -0.50171,0.44043 z"
   id="path63" />
<path
   fill="#1d6cb5"
   opacity="1"
   stroke="none"
   d="m 301.67064,287.20806 c 0.11536,-0.034 0.24634,0.0955 0.45489,0.34179 -0.14044,0.1066 -0.31268,0.008 -0.45489,-0.34179 z"
   id="path64" />
<path
   fill="#2a83d0"
   opacity="1"
   stroke="none"
   d="m 322.83598,203.83785 c 0.0876,0.23488 -0.10589,0.53494 -0.55383,0.93739 -0.0787,-0.22247 0.097,-0.54733 0.55383,-0.93739 z"
   id="path65" />
<path
   fill="#1d6cb5"
   opacity="1"
   stroke="none"
   d="m 318.30614,306.21587 c 0.24402,-0.12518 0.48291,0.0669 0.75592,0.54904 -0.26392,0.18375 -0.52893,0.01 -0.75592,-0.54904 z"
   id="path66" />
<path
   fill="#3895da"
   opacity="1"
   stroke="none"
   d="m 472.51256,287.90807 c -0.0535,-0.1994 0.18378,-0.50714 0.68158,-0.96356 0.0434,0.18597 -0.17377,0.5206 -0.68158,0.96356 z"
   id="path67" />
<path
   fill="#1d6cb5"
   opacity="1"
   stroke="none"
   d="m 302.48332,288.13463 c 0.16944,-0.0555 0.35712,0.12467 0.61792,0.50202 -0.19555,0.11938 -0.41986,-0.0351 -0.61792,-0.50202 z"
   id="path68" />
<path
   fill="#1d6cb5"
   opacity="1"
   stroke="none"
   d="m 313.14531,300.26757 c 0.22436,-0.0695 0.50586,0.13778 0.88245,0.59564 -0.21173,0.0607 -0.51856,-0.12909 -0.88245,-0.59564 z"
   id="path69" />
<path
   fill="#3895da"
   opacity="1"
   stroke="none"
   d="m 471.46587,288.92327 c -0.0503,-0.18109 0.14227,-0.45523 0.56591,-0.83801 0.0463,0.17587 -0.13836,0.46041 -0.56591,0.83801 z"
   id="path70" />
<path
   fill="#1d6cb5"
   opacity="1"
   stroke="none"
   d="m 303.38512,289.16234 c 0.20172,-0.0841 0.42016,0.1059 0.69732,0.54029 -0.21789,0.13168 -0.46435,-0.0385 -0.69732,-0.54029 z"
   id="path71" />
<path
   fill="#4c8fc6"
   opacity="1"
   stroke="none"
   d="m 545.3289,500.47838 c -0.0713,0.29059 -0.29712,0.33356 -0.86645,0.4076 0.008,-0.19764 0.36011,-0.4264 0.86645,-0.4076 z"
   id="path72" />
<path
   fill="#1d6cb5"
   opacity="1"
   stroke="none"
   d="m 178.52995,424.6386 c 0.11853,0.2406 -0.004,0.5899 -0.42285,0.9823 -0.13739,-0.26248 0.0225,-0.56805 0.42285,-0.9823 z"
   id="path73" />
<path
   fill="#1d6cb5"
   opacity="1"
   stroke="none"
   d="m 222.86223,375.83153 c 0.073,0.19864 -0.1145,0.51465 -0.55243,0.95703 -0.0697,-0.19564 0.11114,-0.51767 0.55243,-0.95703 z"
   id="path74" />
<path
   fill="#1d6cb5"
   opacity="1"
   stroke="none"
   d="m 200.53142,400.61294 c 0.12213,0.26486 -0.009,0.61535 -0.4469,0.98232 -0.13996,-0.2879 0.0269,-0.59231 0.4469,-0.98232 z"
   id="path75" />
<path
   fill="#0a59a9"
   opacity="1"
   stroke="none"
   d="m 169.90166,433.91863 c 0.0795,0.20929 -0.10681,0.49438 -0.5213,0.90137 -0.067,-0.19394 0.0942,-0.50977 0.5213,-0.90137 z"
   id="path76" />
<path
   fill="#0a59a9"
   opacity="1"
   stroke="none"
   d="m 170.92314,432.916 c 0.0421,0.17328 -0.16235,0.46335 -0.60193,0.88569 -0.0383,-0.16813 0.15863,-0.46854 0.60193,-0.88569 z"
   id="path77" />
<path
   fill="#1d6cb5"
   opacity="1"
   stroke="none"
   d="m 172.79857,430.81487 c 0.0732,0.22195 -0.12409,0.54156 -0.59345,0.95895 -0.0737,-0.22192 0.12464,-0.54159 0.59345,-0.95895 z"
   id="path78" />
<path
   fill="#125fb9"
   opacity="1"
   stroke="none"
   d="m 224.49577,421.99004 c -0.0621,-0.19867 0.13483,-0.48855 0.57312,-0.89349 0.0562,0.19073 -0.12896,0.49652 -0.57312,0.89349 z"
   id="path79" />
<path
   fill="#1d6cb5"
   opacity="1"
   stroke="none"
   d="m 176.69756,426.72509 c 0.0975,0.23385 -0.0652,0.56704 -0.50989,0.97448 -0.10468,-0.24224 0.0726,-0.55868 0.50989,-0.97448 z"
   id="path80" />
<path
   fill="#1d6cb5"
   opacity="1"
   stroke="none"
   d="m 177.64128,425.68752 c 0.10217,0.23605 -0.0486,0.57651 -0.4892,0.9772 -0.11444,-0.25076 0.0609,-0.56176 0.4892,-0.9772 z"
   id="path81" />
<path
   fill="#3c99de"
   opacity="1"
   stroke="none"
   d="m 528.82268,240.50347 c 0.42852,0.11123 0.68835,0.38385 0.94818,0.65649 -0.11286,0.10745 -0.22571,0.21494 -0.33856,0.32245 -0.25946,-0.27252 -0.51892,-0.54501 -0.60962,-0.97894 z"
   id="path82" />
<path
   fill="#2880cc"
   opacity="1"
   stroke="none"
   d="m 306.30962,354.66924 c -0.44849,-0.49457 -0.77686,-1.27258 -1.10022,-2.388 0.41015,0.47659 0.81524,1.29056 1.10022,2.388 z"
   id="path83" />
<path
   fill="#f5f9f9"
   opacity="1"
   stroke="none"
   d="m 320.09538,241.29216 c 7.05786,-6.20408 14.50165,-6.2214 22.6781,-2.33795 0.37201,0.0297 0.39887,0.008 0.59058,0.23951 0.74005,0.39108 1.28851,0.55062 1.83691,0.71017 0,0 0.22034,0.24164 0.62464,0.44971 1.0545,0.35916 1.70477,0.51025 2.56238,0.88165 0.93725,0.15973 1.66717,0.0991 2.66882,0.2919 2.56396,0.27997 4.85614,0.30661 7.14831,0.33325 0.86658,-0.0969 1.7331,-0.19369 3.07435,-0.5487 0.4746,-0.25815 0.8706,-0.53611 0.8706,-0.53608 1.84229,-0.82766 3.68457,-1.6553 5.7937,-2.69848 4.26929,-0.75205 8.27179,-1.28855 12.70398,-1.8273 13.59003,6.04254 17.10767,16.18557 10.43408,30.35437 -0.41497,0.31241 -0.85247,0.33075 -0.85766,-0.0912 -0.63666,-6.20825 -0.58545,-12.35965 -7.8913,-15.0307 -3.38525,-0.44443 -6.67798,-1.24182 -9.63208,-0.56393 -8.55096,1.96231 -16.58704,6.92892 -26.09369,3.60043 -2.81817,-1.3569 -5.3595,-2.88562 -8.06598,-3.27982 -3.72406,-0.54239 -7.573,-0.22668 -11.71509,-0.24118 -4.98462,3.50739 -6.95605,8.21121 -7.02593,14.23386 -0.44465,1.70197 -0.63135,3.08441 -0.81806,4.46689 -6.17188,-9.60678 -5.84955,-19.12827 1.11334,-28.40644 z"
   id="path84" />
<path
   fill="#1467c1"
   opacity="1"
   stroke="none"
   d="m 134.63417,464.91259 c -0.41257,-9.32678 -0.41528,-18.66617 -0.41135,-28.47104 0.99106,0.50332 2.79908,1.4472 2.82926,2.44494 0.23511,7.76307 0.19849,15.538 0.0325,23.30472 -0.0196,0.91706 -1.32901,1.80652 -2.45038,2.72138 z"
   id="path85" />
<path
   fill="#1d6cb5"
   opacity="1"
   stroke="none"
   d="m 205.35265,516.90441 c -0.74701,-0.4162 -1.14545,-0.81696 -1.54389,-1.21777 1.21753,-0.20337 2.435,-0.40674 3.65253,-0.61011 0.0806,0.40045 0.16131,0.80096 0.24194,1.20141 -0.66736,0.21399 -1.33465,0.42792 -2.35058,0.62647 z"
   id="path86" />
<path
   fill="#1d6cb5"
   opacity="1"
   stroke="none"
   d="m 191.92204,515.2846 c -1.33355,0.39471 -2.88598,0.56775 -4.43835,0.74078 -0.0275,-0.32086 -0.055,-0.64166 -0.0825,-0.96246 1.43402,0 2.86798,0 4.52087,0.22168 z"
   id="path87" />
<path
   fill="#1d6cb5"
   opacity="1"
   stroke="none"
   d="m 200.14952,516.5252 c -0.2301,-0.37799 -0.2279,-0.75354 -0.19861,-1.12702 7.3e-4,-0.0103 0.29224,0.002 0.44818,0.004 -0.005,0.37524 -0.009,0.75055 -0.24957,1.12311 z"
   id="path88" />
<path
   fill="#f5f9f9"
   opacity="1"
   stroke="none"
   d="m 381.99077,301.47246 c -5.64411,-1.19397 -11.18305,-2.92508 -16.82837,-4.17645 -9.2981,-2.061 -18.48395,-1.19553 -27.76563,2.07227 -1.07794,0.42556 -1.87078,0.63287 -3.15759,1.01068 -0.737,0.21386 -0.89386,0.35394 -0.96454,0.59069 -1.71722,0.47144 -3.43445,0.94291 -5.12127,1.40601 -3.0069,-7.48886 0.56823,-17.75119 5.74456,-19.78445 1.57093,-4.88337 2.90656,-9.03519 4.78363,-13.63489 3.74616,-1.17948 6.91858,-2.22138 10.16437,-2.55893 3.53443,-0.36759 7.18317,0.27817 10.69788,-0.17316 4.20416,-0.53988 8.10302,-0.84778 11.3717,3.00345 1.01044,1.78992 1.85877,3.28223 2.80414,5.22086 0.21344,2.91852 0.3299,5.39071 0.44635,7.86294 0.31342,-0.24508 0.62683,-0.49014 0.94031,-0.7352 2.02325,2.46387 4.04651,4.92774 6.06988,7.3916 0.0594,0.54133 0.11896,1.08268 0.36188,2.18604 0.32782,0.98096 0.47223,1.3999 0.61658,1.81888 -3.7e-4,0.44363 -6.7e-4,0.8873 0.032,1.98532 0.10547,1.09479 0.17786,1.53516 0.19507,2.34836 6.1e-4,1.12176 0.0563,1.87066 0.11206,2.6196 -0.14856,0.40826 -0.29712,0.81652 -0.50305,1.54638 m -16.73255,-19.99029 c 3.77423,-1.06232 3.56293,-4.00678 1.8808,-6.09809 -0.82129,-1.02105 -4.33716,-1.06121 -5.76794,-0.16452 -3.21826,2.01694 -5.04028,5.25513 -4.4491,9.47864 2.7547,-1.0614 5.18427,-1.99753 8.33624,-3.21603 m -23.31304,-6.23236 c -3.11567,9.81131 7.57434,5.17022 9.49768,9.70651 0.61377,-7.47885 -3.33905,-11.7168 -9.49768,-9.70651 z"
   id="path89" />
<path
   fill="#99cce8"
   opacity="1"
   stroke="none"
   d="m 339.55644,320.99346 c -3.89813,-3.74884 -8.93005,-6.27112 -9.25805,-12.62598 1.82049,-1.32937 3.58782,-2.27899 5.94494,-2.96823 12.89527,0.49664 25.20069,0.73666 37.50672,0.94281 0.25439,0.004 0.51525,-0.38431 0.77313,-0.58963 1.25158,0.67923 2.50311,1.35846 3.94726,2.27399 0.60517,6.36978 -4.24731,8.95974 -8.11145,12.61566 -0.54059,0.34644 -0.91449,0.4043 -2.06463,0.42691 -8.20874,-0.31842 -15.64026,-0.65894 -23.0755,-0.78726 -0.66993,-0.0116 -1.36359,1.34634 -2.04621,2.06827 -1.09686,-0.40452 -2.19378,-0.809 -3.61621,-1.35654 z"
   id="path90" />
<path
   fill="#c2e1f1"
   opacity="1"
   stroke="none"
   d="m 370.75346,268.93007 c -3.10663,-3.55362 -7.00549,-3.24572 -11.20965,-2.70584 -3.51471,0.45133 -7.16345,-0.19443 -10.69788,0.17316 -3.24579,0.33755 -6.41821,1.37945 -9.90777,2.26416 -2.66925,1.44571 -5.28418,2.44214 -7.39527,4.08569 -6.67791,5.19895 -7.88623,5.04889 -12.53369,-2.73712 0.15955,-1.694 0.34625,-3.07644 1.24024,-4.76581 4.92822,0.17237 8.75732,-0.33911 11.48767,-4.37854 1.35937,0.35657 2.39679,0.64875 3.86865,1.05915 2.24512,0.0755 4.06195,-0.0807 5.86529,0.0157 2.99146,0.15991 5.97004,0.57486 8.96186,0.70908 2.76196,0.1239 5.55066,0.20605 8.2973,-0.0364 2.69745,-0.23816 5.34485,-1.20062 8.03613,-1.31146 3.081,-0.12686 6.18616,0.33447 9.57563,0.75857 3.6206,5.28815 9.04046,4.24506 13.88739,4.87455 0,0 0.4375,-0.0183 0.65631,-0.0201 -1.30915,2.7931 -2.8371,5.58799 -4.93152,8.74103 -1.63648,0.36087 -2.70649,0.36356 -3.77649,0.36621 0,0 -0.007,-0.0692 -0.13294,-0.22104 -0.29461,-0.36843 -0.51635,-0.47552 -0.79095,-0.47308 -0.39319,-0.24362 -0.78638,-0.48724 -1.65668,-1.13113 -3.26593,-2.02243 -6.05475,-3.64459 -8.84363,-5.26676 z"
   id="path91" />
<path
   fill="#edf5f7"
   opacity="1"
   stroke="none"
   d="m 374.24309,305.50734 c 0.0222,0.45041 -0.23865,0.83896 -0.49304,0.83472 -12.30603,-0.20615 -24.61145,-0.44617 -37.167,-0.95462 12.31305,-5.27191 24.85486,-4.85367 37.66004,0.1199 z"
   id="path92" />
<path
   fill="#3584c3"
   opacity="1"
   stroke="none"
   d="m 333.41765,300.95788 c -0.0723,-0.22498 0.0845,-0.36506 0.48077,-0.34949 0.0164,0.19919 -0.14734,0.29205 -0.48077,0.34949 z"
   id="path93" />
<path
   fill="#4c8fc6"
   opacity="1"
   stroke="none"
   d="m 537.16869,516.50512 c 1.50708,-0.67621 3.30017,-1.13642 5.09332,-1.59668 0.0774,0.60425 0.15485,1.20843 0.2323,1.81268 -1.67987,0 -3.35974,0 -5.32562,-0.216 z"
   id="path94" />
<path
   fill="#3584c3"
   opacity="1"
   stroke="none"
   d="m 381.51714,288.90447 c -2.36432,-2.40045 -4.38758,-4.86432 -6.41083,-7.32819 -0.31348,0.24506 -0.62689,0.49012 -0.94031,0.7352 -0.11645,-2.47223 -0.23291,-4.94442 -0.0781,-7.8464 1.22058,0.53732 2.16986,1.50442 3.11914,2.47152 1.53485,2.4527 3.29535,4.80042 4.50683,7.40363 0.58252,1.25156 0.12879,2.98538 -0.19677,4.56424 z"
   id="path95" />
<path
   fill="#4c8fc6"
   opacity="1"
   stroke="none"
   d="m 377.575,276.86065 c -1.3172,-0.89115 -2.26648,-1.85825 -3.58405,-2.84189 -1.21667,-1.50885 -2.065,-3.00116 -3.07544,-4.79108 2.62683,1.32456 5.41565,2.94672 8.36615,4.82443 -0.3385,1.08121 -0.83856,1.90689 -1.70666,2.80854 z"
   id="path96" />
<path
   fill="#3584c3"
   opacity="1"
   stroke="none"
   d="m 382.80742,299.84414 c -0.36932,-0.667 -0.42505,-1.4159 -0.25147,-2.66147 0.42914,-0.70954 0.56568,-0.95734 0.63892,-1.24005 -0.0246,1.27319 -0.0492,2.54638 -0.38745,3.90152 z"
   id="path97" />
<path
   fill="#3584c3"
   opacity="1"
   stroke="none"
   d="m 382.46965,292.91768 c -0.45935,-0.36386 -0.60376,-0.7828 -0.77808,-1.53445 0.6341,-0.0496 1.29816,0.2334 1.96222,0.51642 -0.28967,0.32098 -0.5794,0.64197 -1.18414,1.01803 z"
   id="path98" />
<path
   fill="#4c8fc6"
   opacity="1"
   stroke="none"
   d="m 382.40862,276.2636 c 0.83904,-0.24417 1.90905,-0.24686 3.37731,-0.31647 -0.78332,0.14142 -1.96484,0.3497 -3.37731,0.31647 z"
   id="path99" />
<path
   fill="#4c8fc6"
   opacity="1"
   stroke="none"
   d="m 383.10197,295.73778 c 0.0197,0.48755 -0.11688,0.73535 -0.49084,1.07209 -0.24658,-0.31659 -0.31897,-0.75696 -0.3316,-1.53019 0.34112,-0.20389 0.56439,-0.009 0.82244,0.4581 z"
   id="path100" />
<path
   fill="#4c8fc6"
   opacity="1"
   stroke="none"
   d="m 381.3676,275.47008 c 0.16077,-0.14456 0.38251,-0.0375 0.64563,0.34571 -0.1416,0.0891 -0.35022,-0.0343 -0.64563,-0.34571 z"
   id="path101" />
<path
   fill="#125fb9"
   opacity="1"
   stroke="none"
   d="m 174.21819,431.29589 c 0.45263,-0.60001 0.95251,-0.86563 1.71209,-1.24372 0.39453,1.02454 0.52936,2.16156 0.66419,3.29859 -0.77637,-0.57352 -1.55274,-1.147 -2.37628,-2.05487 z"
   id="path102" />
<path
   fill="#125fb9"
   opacity="1"
   stroke="none"
   d="m 201.97905,445.06069 c 0.10724,0.20468 -0.0815,0.46417 -0.56616,0.77865 -0.10742,-0.20477 0.0812,-0.46438 0.56616,-0.77865 z"
   id="path103" />
<path
   fill="#0a59a9"
   opacity="1"
   stroke="none"
   d="m 201.73845,440.42522 c 0.0272,0.0486 -0.0273,-0.0486 0,0 z"
   id="path104" />
<path
   fill="#2a83d0"
   opacity="1"
   stroke="none"
   d="m 358.10057,241.48992 c -2.18762,0.34384 -4.4798,0.3172 -7.47296,-0.0628 -1.28296,-0.37298 -1.86493,-0.39257 -2.44696,-0.41217 -0.65027,-0.15109 -1.30054,-0.30218 -2.19452,-0.69217 3.84082,0.1063 7.92535,0.45145 12.11444,1.16715 z"
   id="path105" />
<path
   fill="#2a83d0"
   opacity="1"
   stroke="none"
   d="m 345.01469,239.67937 c -0.36212,0.065 -0.91058,-0.0946 -1.64868,-0.47314 0.36103,-0.0631 0.91168,0.0927 1.64868,0.47314 z"
   id="path106" />
<path
   fill="#2a83d0"
   opacity="1"
   stroke="none"
   d="m 362.02751,240.6541 c 0.12256,0.12149 -0.27344,0.39945 -0.51373,0.42194 -0.0298,-0.16614 0.18072,-0.35477 0.51373,-0.42194 z"
   id="path107" />
<path
   fill="#419fe1"
   opacity="1"
   stroke="none"
   d="m 517.63969,263.57738 c -0.11108,0.42825 -0.38336,0.6879 -0.6557,0.94751 -0.10742,-0.11279 -0.21478,-0.22555 -0.3222,-0.33826 0.27228,-0.2593 0.54456,-0.51861 0.9779,-0.60925 z"
   id="path108" />
<path
   fill="#7bbce3"
   opacity="1"
   stroke="none"
   d="m 343.43022,322.57836 c 0.42505,-0.95029 1.11871,-2.30826 1.78864,-2.29663 7.43524,0.12832 14.86676,0.46884 22.79351,0.82049 -7.5288,4.40482 -15.76251,5.54633 -24.58215,1.47614 z"
   id="path109" />
<path
   fill="#358bcb"
   opacity="1"
   stroke="none"
   d="m 376.04717,261.84209 c -3.09467,-0.20578 -6.19983,-0.66711 -9.28083,-0.54025 -2.69128,0.11084 -5.33868,1.0733 -8.03613,1.31146 -2.74664,0.24243 -5.53534,0.16028 -8.2973,0.0364 -2.99182,-0.13422 -5.9704,-0.54917 -8.96186,-0.70908 -1.80334,-0.0964 -3.62017,0.0598 -5.85565,-0.41681 2.12378,-5.07214 7.10785,-5.02444 11.19501,-6.67087 9.30334,2.99442 17.33942,-1.97219 25.89038,-3.9345 2.9541,-0.67789 6.24683,0.1195 9.56256,0.96914 0.55542,5.54062 -2.90497,7.69589 -6.21618,9.95453 z"
   id="path110" />
<path
   fill="#2579c0"
   opacity="1"
   stroke="none"
   d="m 346.6071,254.51885 c -3.88385,1.9805 -8.86792,1.9328 -11.42615,6.88672 -1.04705,0.10895 -2.08447,-0.18323 -3.64441,-0.82617 -3.82177,-2.60343 -4.9295,-5.76444 -4.36389,-9.61899 3.79547,0.0519 7.64441,-0.26377 11.36847,0.27862 2.70648,0.3942 5.24781,1.92292 8.06598,3.27982 z"
   id="path111" />
<path
   fill="#b3daf1"
   opacity="1"
   stroke="none"
   d="m 376.34197,262.06041 c 3.01641,-2.47696 6.4768,-4.63223 6.16864,-9.85192 7.12811,1.94491 7.0769,8.09631 7.71356,14.30456 -4.84174,-0.20758 -10.2616,0.83551 -13.8822,-4.45264 z"
   id="path112" />
<path
   fill="#b3daf1"
   opacity="1"
   stroke="none"
   d="m 326.82603,250.99785 c -0.21899,3.81711 0.88874,6.97812 4.38855,9.51718 -2.20782,4.39017 -6.03692,4.90165 -10.70715,4.40976 -0.63745,-5.71573 1.33398,-10.41955 6.3186,-13.92694 z"
   id="path113" />
<path
   fill="#3691d6"
   opacity="1"
   stroke="none"
   d="m 348.38799,241.23525 c 0.37469,-0.20071 0.95666,-0.18112 1.96789,-0.0615 -0.30072,0.16061 -1.03064,0.22119 -1.96789,0.0615 z"
   id="path114" />
<path
   fill="#3584c3"
   opacity="1"
   stroke="none"
   d="m 364.89702,281.62334 c -2.79077,1.07733 -5.22034,2.01346 -7.97504,3.07486 -0.59118,-4.22351 1.23084,-7.4617 4.4491,-9.47864 1.43078,-0.89669 4.94665,-0.85653 5.76794,0.16452 1.68213,2.09131 1.89343,5.03577 -2.242,6.23926 z"
   id="path115" />
<path
   fill="#2574ba"
   opacity="1"
   stroke="none"
   d="m 342.16643,274.91344 c 5.93738,-1.67392 9.8902,2.56403 9.27643,10.04288 -1.92334,-4.53629 -12.61335,0.1048 -9.27643,-10.04288 z"
   id="path116" />
</svg>
